<svg xmlns="http://www.w3.org/2000/svg" width="25" height="25" viewBox="0 0 25 25" fill="none"><path d="M20.8333 11.457H22.9167C22.9167 6.11322 18.8823 2.08301 13.5312 2.08301V4.16634C17.7625 4.16634 20.8333 7.23197 20.8333 11.457Z" fill="#AF6E5A"></path><path d="M13.542 8.33366C15.7326 8.33366 16.667 9.26804 16.667 11.4587H18.7503C18.7503 8.09929 16.9013 6.25033 13.542 6.25033V8.33366ZM17.1065 14.0035C16.9064 13.8215 16.6434 13.7245 16.373 13.7329C16.1027 13.7412 15.8461 13.8543 15.6576 14.0482L13.1649 16.6118C12.5649 16.4972 11.3586 16.1212 10.117 14.8826C8.87529 13.6399 8.49925 12.4305 8.38779 11.8347L10.9493 9.34095C11.1434 9.15255 11.2567 8.89598 11.265 8.62555C11.2734 8.35511 11.1762 8.09204 10.994 7.892L7.14509 3.65971C6.96284 3.45904 6.70954 3.33731 6.43899 3.32039C6.16845 3.30347 5.90196 3.39268 5.69613 3.56908L3.43571 5.50762C3.25562 5.68837 3.14813 5.92892 3.13363 6.18366C3.118 6.44408 2.82009 12.6128 7.60342 17.3982C11.7763 21.5701 17.0034 21.8753 18.443 21.8753C18.6534 21.8753 18.7826 21.8691 18.817 21.867C19.0717 21.8527 19.3121 21.7448 19.492 21.5639L21.4295 19.3024C21.606 19.0967 21.6954 18.8303 21.6786 18.5598C21.6619 18.2892 21.5404 18.0358 21.3399 17.8535L17.1065 14.0035Z" fill="#AF6E5A"></path></svg>