<svg xmlns="http://www.w3.org/2000/svg" width="40" height="40" viewBox="0 0 40 40" fill="none"><g clip-path="url(#clip0_517_497)"><path d="M39.9997 37.5069L30.583 27.7959C31.3116 27.0507 31.8964 26.1692 32.3059 25.1983C32.7483 24.1495 32.9767 23.0184 32.9773 21.8751V21.8748C32.9761 20.4702 32.6317 19.0882 31.9755 17.8563C31.3422 16.6675 30.438 15.6552 29.3409 14.9064V11.875C29.3409 11.8305 29.3311 11.794 29.3278 11.7818C29.3231 11.7419 29.3134 11.7021 29.3097 11.6867C29.3091 11.6843 29.3087 11.6824 29.3084 11.6813C29.2844 11.5717 29.2395 11.4678 29.1762 11.3756C29.1691 11.3578 29.1576 11.3342 29.139 11.3095L29.1341 11.303L29.1288 11.2968L19.4318 0.0467777L19.427 0.0412381L19.4219 0.0359871C19.4111 0.0248714 19.4003 0.0156762 19.3901 0.00809914C19.2906 -0.0913297 19.168 -0.164593 19.0328 -0.204194C18.9927 -0.216744 18.9545 -0.22229 18.9364 -0.224913C18.9359 -0.224984 18.9355 -0.225052 18.935 -0.225118C18.9341 -0.225345 18.9326 -0.225715 18.9305 -0.226285L18.92 -0.229142L18.9044 -0.233398C18.8819 -0.239349 18.8393 -0.25 18.7879 -0.25H1.81818C0.670491 -0.25 -0.25 0.710486 -0.25 1.875V38.125C-0.25 39.2895 0.670491 40.25 1.81818 40.25H27.2727C28.4204 40.25 29.3409 39.2895 29.3409 38.125V29.0007L38.7821 38.7369C38.7827 38.7375 38.7833 38.7381 38.7839 38.7387C38.862 38.8219 38.9557 38.8887 39.0598 38.935C39.1647 38.9817 39.2779 39.0064 39.3927 39.0076C39.5074 39.0088 39.6211 38.9864 39.7269 38.9419C39.8327 38.8975 39.9284 38.8319 40.0085 38.7495C40.0886 38.6672 40.1516 38.5696 40.1942 38.4627C40.2368 38.3558 40.2582 38.2415 40.2574 38.1264C40.2566 38.0113 40.2336 37.8973 40.1895 37.791C40.1457 37.6855 40.0819 37.5894 40.0014 37.5085C40.0008 37.508 40.0003 37.5074 39.9997 37.5069ZM29.3274 15.0885L29.3275 15.0879C29.327 15.0898 29.3263 15.0921 29.3264 15.0921C29.3264 15.0921 29.3266 15.0912 29.3274 15.0885ZM31.2652 21.875C31.2652 25.5355 28.3784 28.5 24.8485 28.5C21.3186 28.5 18.4318 25.5355 18.4318 21.875C18.4318 18.2145 21.3186 15.25 24.8485 15.25C28.3784 15.25 31.2652 18.2145 31.2652 21.875ZM19.6439 10.3125V2.94168L26.5902 11H20.004C20.0014 10.9991 19.9832 10.9938 19.9493 10.9666C19.9059 10.9317 19.8555 10.8753 19.8069 10.8002C19.7075 10.6464 19.6439 10.4586 19.6439 10.3125ZM1.46212 1.875C1.46212 1.7731 1.50144 1.67687 1.56911 1.60709C1.63652 1.53758 1.72627 1.5 1.81818 1.5H17.9318V10.3125C17.9318 10.8784 18.1518 11.4784 18.5094 11.9388C18.8667 12.3989 19.3872 12.75 20 12.75H27.6288V14.0058C26.2116 13.4725 24.6752 13.3567 23.1932 13.6758C21.6241 14.0137 20.1892 14.8233 19.0688 16H6.66667C6.4371 16 6.21855 16.0941 6.05864 16.259C5.89899 16.4237 5.81061 16.6454 5.81061 16.875C5.81061 17.1046 5.89899 17.3263 6.05864 17.491C6.21855 17.6559 6.4371 17.75 6.66667 17.75H17.7839C17.232 18.749 16.8873 19.8557 16.772 21H6.66667C6.4371 21 6.21855 21.0941 6.05864 21.259C5.89899 21.4237 5.81061 21.6454 5.81061 21.875C5.81061 22.1046 5.89899 22.3263 6.05864 22.491C6.21855 22.6559 6.4371 22.75 6.66667 22.75H16.7709C16.8866 23.8943 17.2314 25.0009 17.7829 26H6.66667C6.4371 26 6.21855 26.0941 6.05864 26.259C5.89899 26.4237 5.81061 26.6454 5.81061 26.875C5.81061 27.1046 5.89899 27.3263 6.05864 27.491C6.21855 27.6559 6.4371 27.75 6.66667 27.75H19.0694C20.1874 28.9235 21.6184 29.7319 23.1836 30.0709C24.6685 30.3925 26.2085 30.2774 27.6288 29.7429V38.125C27.6288 38.2269 27.5895 38.3231 27.5218 38.3929C27.4544 38.4624 27.3646 38.5 27.2727 38.5H1.81818C1.62406 38.5 1.46212 38.3442 1.46212 38.125V1.875ZM19.2086 27.7307C19.209 27.7306 19.2089 27.7307 19.2085 27.7307L19.2086 27.7307Z" fill="white" stroke="white" stroke-width="0.5"></path><path d="M6.23806 11.4331L6.05858 11.259C6.21849 11.0941 6.43704 11 6.66661 11H13.9393C14.1689 11 14.3875 11.0941 14.5474 11.259M6.23806 11.4331L14.5474 11.259L14.3694 11.4316L14.5474 11.259M6.23806 11.4331L6.05858 11.259C5.89893 11.4237 5.81055 11.6454 5.81055 11.875C5.81055 12.1046 5.89893 12.3263 6.05858 12.491C6.21849 12.6559 6.43704 12.75 6.66661 12.75H13.9393M6.23806 11.4331L13.9393 12.75M14.5474 11.259C14.707 11.4237 14.7954 11.6454 14.7954 11.875M14.5474 11.259L14.7954 11.875M13.9393 12.75C14.1689 12.75 14.3875 12.6559 14.5474 12.491M13.9393 12.75L14.5474 12.491M14.5474 12.491C14.707 12.3263 14.7954 12.1046 14.7954 11.875M14.5474 12.491L14.7954 11.875M6.66661 32.75H22.4242C22.6537 32.75 22.8723 32.6559 23.0322 32.491C23.1919 32.3263 23.2802 32.1046 23.2802 31.875C23.2802 31.6454 23.1919 31.4237 23.0322 31.259C22.8723 31.0941 22.6537 31 22.4242 31H6.66661C6.43704 31 6.21849 31.0941 6.05858 31.259C5.89893 31.4237 5.81055 31.6454 5.81055 31.875C5.81055 32.1046 5.89893 32.3263 6.05858 32.491C6.21849 32.6559 6.43704 32.75 6.66661 32.75Z" fill="white" stroke="white" stroke-width="0.5"></path></g><defs><clipPath id="clip0_517_497"><rect width="40" height="40" fill="white"></rect></clipPath></defs></svg>