<svg width="116" height="43" viewBox="0 0 116 43" fill="none" xmlns="http://www.w3.org/2000/svg">
<rect width="116" height="43" rx="21.5" fill="url(#paint0_linear_517_490)"/>
<rect width="116" height="43" rx="21.5" fill="url(#paint1_linear_517_490)"/>
<path d="M41.4949 18.536C41.4309 18.648 41.3615 18.7307 41.2869 18.784C41.2175 18.832 41.1295 18.856 41.0229 18.856C40.9109 18.856 40.7882 18.816 40.6549 18.736C40.5269 18.6507 40.3722 18.5573 40.1909 18.456C40.0095 18.3547 39.7962 18.264 39.5509 18.184C39.3109 18.0987 39.0255 18.056 38.6949 18.056C38.3962 18.056 38.1349 18.0933 37.9109 18.168C37.6869 18.2373 37.4975 18.336 37.3429 18.464C37.1935 18.592 37.0815 18.7467 37.0069 18.928C36.9322 19.104 36.8949 19.2987 36.8949 19.512C36.8949 19.784 36.9695 20.0107 37.1189 20.192C37.2735 20.3733 37.4762 20.528 37.7269 20.656C37.9775 20.784 38.2629 20.8987 38.5829 21C38.9029 21.1013 39.2309 21.2107 39.5669 21.328C39.9029 21.44 40.2309 21.5733 40.5509 21.728C40.8709 21.8773 41.1562 22.0693 41.4069 22.304C41.6575 22.5333 41.8575 22.816 42.0069 23.152C42.1615 23.488 42.2389 23.896 42.2389 24.376C42.2389 24.8987 42.1482 25.3893 41.9669 25.848C41.7909 26.3013 41.5295 26.6987 41.1829 27.04C40.8415 27.376 40.4229 27.6427 39.9269 27.84C39.4309 28.032 38.8629 28.128 38.2229 28.128C37.8549 28.128 37.4922 28.0907 37.1349 28.016C36.7775 27.9467 36.4335 27.8453 36.1029 27.712C35.7775 27.5787 35.4709 27.4187 35.1829 27.232C34.8949 27.0453 34.6389 26.8373 34.4149 26.608L35.0469 25.576C35.1002 25.5013 35.1695 25.44 35.2549 25.392C35.3402 25.3387 35.4309 25.312 35.5269 25.312C35.6602 25.312 35.8042 25.368 35.9589 25.48C36.1135 25.5867 36.2975 25.7067 36.5109 25.84C36.7242 25.9733 36.9722 26.096 37.2549 26.208C37.5429 26.3147 37.8869 26.368 38.2869 26.368C38.9002 26.368 39.3749 26.224 39.7109 25.936C40.0469 25.6427 40.2149 25.224 40.2149 24.68C40.2149 24.376 40.1375 24.128 39.9829 23.936C39.8335 23.744 39.6335 23.584 39.3829 23.456C39.1322 23.3227 38.8469 23.2107 38.5269 23.12C38.2069 23.0293 37.8815 22.9307 37.5509 22.824C37.2202 22.7173 36.8949 22.5893 36.5749 22.44C36.2549 22.2907 35.9695 22.096 35.7189 21.856C35.4682 21.616 35.2655 21.3173 35.1109 20.96C34.9615 20.5973 34.8869 20.152 34.8869 19.624C34.8869 19.2027 34.9695 18.792 35.1349 18.392C35.3055 17.992 35.5509 17.6373 35.8709 17.328C36.1909 17.0187 36.5855 16.7707 37.0549 16.584C37.5242 16.3973 38.0629 16.304 38.6709 16.304C39.3535 16.304 39.9829 16.4107 40.5589 16.624C41.1349 16.8373 41.6255 17.136 42.0309 17.52L41.4949 18.536ZM49.0609 22.952C49.0609 22.696 49.0235 22.456 48.9489 22.232C48.8795 22.0027 48.7729 21.8027 48.6289 21.632C48.4849 21.4613 48.3009 21.328 48.0769 21.232C47.8582 21.1307 47.6022 21.08 47.3089 21.08C46.7382 21.08 46.2875 21.2427 45.9569 21.568C45.6315 21.8933 45.4235 22.3547 45.3329 22.952H49.0609ZM45.2929 24.144C45.3249 24.5653 45.3995 24.9307 45.5169 25.24C45.6342 25.544 45.7889 25.7973 45.9809 26C46.1729 26.1973 46.3995 26.3467 46.6609 26.448C46.9275 26.544 47.2209 26.592 47.5409 26.592C47.8609 26.592 48.1355 26.5547 48.3649 26.48C48.5995 26.4053 48.8022 26.3227 48.9729 26.232C49.1489 26.1413 49.3009 26.0587 49.4289 25.984C49.5622 25.9093 49.6902 25.872 49.8129 25.872C49.9782 25.872 50.1009 25.9333 50.1809 26.056L50.7489 26.776C50.5302 27.032 50.2849 27.248 50.0129 27.424C49.7409 27.5947 49.4555 27.7333 49.1569 27.84C48.8635 27.9413 48.5622 28.0133 48.2529 28.056C47.9489 28.0987 47.6529 28.12 47.3649 28.12C46.7942 28.12 46.2635 28.0267 45.7729 27.84C45.2822 27.648 44.8555 27.368 44.4929 27C44.1302 26.6267 43.8449 26.168 43.6369 25.624C43.4289 25.0747 43.3249 24.44 43.3249 23.72C43.3249 23.16 43.4155 22.6347 43.5969 22.144C43.7782 21.648 44.0369 21.2187 44.3729 20.856C44.7142 20.488 45.1275 20.1973 45.6129 19.984C46.1035 19.7707 46.6555 19.664 47.2689 19.664C47.7862 19.664 48.2635 19.7467 48.7009 19.912C49.1382 20.0773 49.5142 20.32 49.8289 20.64C50.1435 20.9547 50.3889 21.344 50.5649 21.808C50.7462 22.2667 50.8369 22.792 50.8369 23.384C50.8369 23.6827 50.8049 23.8853 50.7409 23.992C50.6769 24.0933 50.5542 24.144 50.3729 24.144H45.2929ZM56.6558 24.496C56.0851 24.5227 55.6051 24.5733 55.2158 24.648C54.8264 24.7173 54.5144 24.808 54.2798 24.92C54.0451 25.032 53.8771 25.1627 53.7758 25.312C53.6744 25.4613 53.6238 25.624 53.6238 25.8C53.6238 26.1467 53.7251 26.3947 53.9278 26.544C54.1358 26.6933 54.4051 26.768 54.7358 26.768C55.1411 26.768 55.4904 26.696 55.7838 26.552C56.0824 26.4027 56.3731 26.1787 56.6558 25.88V24.496ZM52.1278 20.936C53.0718 20.072 54.2078 19.64 55.5358 19.64C56.0158 19.64 56.4451 19.72 56.8238 19.88C57.2024 20.0347 57.5224 20.2533 57.7838 20.536C58.0451 20.8133 58.2424 21.1467 58.3758 21.536C58.5144 21.9253 58.5838 22.352 58.5838 22.816V28H57.6878C57.5011 28 57.3571 27.9733 57.2558 27.92C57.1544 27.8613 57.0744 27.7467 57.0158 27.576L56.8398 26.984C56.6318 27.1707 56.4291 27.336 56.2318 27.48C56.0344 27.6187 55.8291 27.736 55.6158 27.832C55.4024 27.928 55.1731 28 54.9278 28.048C54.6878 28.1013 54.4211 28.128 54.1278 28.128C53.7811 28.128 53.4611 28.0827 53.1678 27.992C52.8744 27.896 52.6211 27.7547 52.4078 27.568C52.1944 27.3813 52.0291 27.1493 51.9118 26.872C51.7944 26.5947 51.7358 26.272 51.7358 25.904C51.7358 25.696 51.7704 25.4907 51.8398 25.288C51.9091 25.08 52.0211 24.8827 52.1758 24.696C52.3358 24.5093 52.5411 24.3333 52.7918 24.168C53.0424 24.0027 53.3491 23.8587 53.7118 23.736C54.0798 23.6133 54.5064 23.5147 54.9918 23.44C55.4771 23.36 56.0318 23.312 56.6558 23.296V22.816C56.6558 22.2667 56.5384 21.8613 56.3038 21.6C56.0691 21.3333 55.7304 21.2 55.2878 21.2C54.9678 21.2 54.7011 21.2373 54.4878 21.312C54.2798 21.3867 54.0958 21.472 53.9358 21.568C53.7758 21.6587 53.6291 21.7413 53.4958 21.816C53.3678 21.8907 53.2238 21.928 53.0638 21.928C52.9251 21.928 52.8078 21.8933 52.7118 21.824C52.6158 21.7493 52.5384 21.664 52.4798 21.568L52.1278 20.936ZM62.3088 21.216C62.5648 20.7253 62.8688 20.3413 63.2208 20.064C63.5728 19.7813 63.9888 19.64 64.4688 19.64C64.8474 19.64 65.1514 19.7227 65.3808 19.888L65.2528 21.368C65.2261 21.464 65.1861 21.5333 65.1328 21.576C65.0848 21.6133 65.0181 21.632 64.9328 21.632C64.8528 21.632 64.7328 21.6187 64.5728 21.592C64.4181 21.5653 64.2661 21.552 64.1168 21.552C63.8981 21.552 63.7034 21.584 63.5328 21.648C63.3621 21.712 63.2074 21.8053 63.0688 21.928C62.9354 22.0453 62.8154 22.1893 62.7088 22.36C62.6074 22.5307 62.5114 22.7253 62.4208 22.944V28H60.4448V19.792H61.6048C61.8074 19.792 61.9488 19.8293 62.0288 19.904C62.1088 19.9733 62.1621 20.1013 62.1888 20.288L62.3088 21.216ZM72.0591 21.528C72.0005 21.6027 71.9418 21.6613 71.8831 21.704C71.8298 21.7467 71.7498 21.768 71.6431 21.768C71.5418 21.768 71.4431 21.7387 71.3471 21.68C71.2511 21.616 71.1365 21.5467 71.0031 21.472C70.8698 21.392 70.7098 21.3227 70.5231 21.264C70.3418 21.2 70.1151 21.168 69.8431 21.168C69.4965 21.168 69.1925 21.232 68.9311 21.36C68.6698 21.4827 68.4511 21.6613 68.2751 21.896C68.1045 22.1307 67.9765 22.416 67.8911 22.752C67.8058 23.0827 67.7631 23.4587 67.7631 23.88C67.7631 24.3173 67.8085 24.7067 67.8991 25.048C67.9951 25.3893 68.1311 25.6773 68.3071 25.912C68.4831 26.1413 68.6965 26.3173 68.9471 26.44C69.1978 26.5573 69.4805 26.616 69.7951 26.616C70.1098 26.616 70.3631 26.5787 70.5551 26.504C70.7525 26.424 70.9178 26.3387 71.0511 26.248C71.1845 26.152 71.2991 26.0667 71.3951 25.992C71.4965 25.912 71.6085 25.872 71.7311 25.872C71.8911 25.872 72.0111 25.9333 72.0911 26.056L72.6591 26.776C72.4405 27.032 72.2031 27.248 71.9471 27.424C71.6911 27.5947 71.4245 27.7333 71.1471 27.84C70.8751 27.9413 70.5925 28.0133 70.2991 28.056C70.0111 28.0987 69.7231 28.12 69.4351 28.12C68.9285 28.12 68.4511 28.0267 68.0031 27.84C67.5551 27.648 67.1631 27.3707 66.8271 27.008C66.4911 26.6453 66.2245 26.2027 66.0271 25.68C65.8351 25.152 65.7391 24.552 65.7391 23.88C65.7391 23.2773 65.8245 22.72 65.9951 22.208C66.1711 21.6907 66.4271 21.2453 66.7631 20.872C67.0991 20.4933 67.5151 20.1973 68.0111 19.984C68.5071 19.7707 69.0778 19.664 69.7231 19.664C70.3365 19.664 70.8725 19.7627 71.3311 19.96C71.7951 20.1573 72.2111 20.44 72.5791 20.808L72.0591 21.528ZM75.8739 20.672C76.1939 20.3733 76.5459 20.1307 76.9299 19.944C77.3139 19.7573 77.7645 19.664 78.2819 19.664C78.7299 19.664 79.1272 19.7413 79.4739 19.896C79.8205 20.0453 80.1085 20.2587 80.3379 20.536C80.5725 20.808 80.7485 21.136 80.8659 21.52C80.9885 21.8987 81.0499 22.3173 81.0499 22.776V28H79.0739V22.776C79.0739 22.2747 78.9592 21.888 78.7299 21.616C78.5005 21.3387 78.1512 21.2 77.6819 21.2C77.3405 21.2 77.0205 21.2773 76.7219 21.432C76.4232 21.5867 76.1405 21.7973 75.8739 22.064V28H73.8979V16.112H75.8739V20.672Z" fill="white"/>
<defs>
<linearGradient id="paint0_linear_517_490" x1="5.84735e-07" y1="26.4615" x2="218.167" y2="24.5358" gradientUnits="userSpaceOnUse">
<stop stop-color="#127477"/>
<stop offset="1" stop-color="#023D45"/>
</linearGradient>
<linearGradient id="paint1_linear_517_490" x1="5.81236e-07" y1="26.4615" x2="116.385" y2="25.9619" gradientUnits="userSpaceOnUse">
<stop stop-color="#E29076"/>
<stop offset="1" stop-color="#CD6C4E"/>
</linearGradient>
</defs>
</svg>
