<svg xmlns="http://www.w3.org/2000/svg" width="41" height="40" viewBox="0 0 41 40" fill="none"><path fill-rule="evenodd" clip-rule="evenodd" d="M16.1189 4.05934L12.0762 8.11868L13.7239 9.72746C15.4415 11.4045 16.1281 11.4053 16.6511 9.72965C17.0092 8.58089 18.6801 8.3863 19.5179 9.396C20.2438 10.2706 19.7869 11.2908 18.4409 11.8024C16.948 12.37 17.0503 13.1073 18.8668 14.8678L20.3973 16.3511L21.8395 14.9535C23.5681 13.2782 24.1501 13.2052 24.5052 14.6198C24.9381 16.3449 27.4066 16.6051 28.0258 14.9911C28.4522 13.8799 27.85 12.7028 26.7087 12.4163C25.256 12.0516 25.3715 11.3686 27.1831 9.61289L28.7215 8.12174L24.6775 4.06109C22.453 1.82742 20.5272 0 20.3973 0C20.2674 0 18.3421 1.82655 16.1189 4.05934ZM13.51 24.0941C12.7964 24.3595 12.5261 24.8121 12.5261 25.7431C12.5261 26.7756 12.7824 27.1158 13.838 27.4835C14.5595 27.735 15.1499 28.0905 15.1499 28.2733C15.1499 28.456 14.4633 29.3088 13.6242 30.168L12.0985 31.7305L16.251 35.8654L20.403 40L24.4317 35.9717L28.4605 31.943L26.9667 30.402C25.1917 28.5706 24.6421 28.4906 23.9695 29.9664C23.3503 31.3255 22.3485 31.7598 21.4848 31.0426C20.4262 30.1641 20.6671 28.4823 21.8963 28.174C23.5607 27.756 23.5226 26.9146 21.7608 25.1943L20.1323 23.6043L18.8712 24.921C17.3525 26.5062 16.5719 26.584 16.0472 25.2035C15.5679 23.9428 14.8092 23.6113 13.51 24.0941Z" fill="white"></path><path d="M36.0879 16.2047L36.0878 16.2046L32.3863 12.5182L31.1303 13.8046C31.1303 13.8046 31.1303 13.8046 31.1303 13.8046C30.7189 14.2259 30.4293 14.5653 30.2449 14.8414C30.0548 15.1261 30.0143 15.2886 30.0142 15.3673C30.0142 15.4064 30.0195 15.4605 30.1371 15.5531C30.2742 15.6609 30.5185 15.7801 30.9192 15.9052C31.72 16.1548 32.1593 16.8573 32.2432 17.5782C32.3271 18.2982 32.0698 19.0977 31.4233 19.6341C30.8587 20.1028 30.1844 20.2235 29.5604 19.9442C28.9691 19.6795 28.514 19.0966 28.2302 18.35M36.0879 16.2047L28.6976 18.1723M36.0879 16.2047C37.2019 17.3139 38.2133 18.3475 38.9449 19.1187C39.3113 19.5048 39.6046 19.8221 39.8049 20.049C39.8299 20.0773 39.8531 20.1039 39.8746 20.1287C39.8531 20.1536 39.8298 20.1802 39.8048 20.2086C39.6044 20.4355 39.3109 20.7529 38.9444 21.1392C38.2124 21.9107 37.2006 22.9448 36.0861 24.0546L36.4389 24.4089L36.0879 16.2047ZM28.2302 18.35L28.6976 18.1723M28.2302 18.35C28.2302 18.35 28.2302 18.35 28.2302 18.35L28.6976 18.1723M28.2302 18.35C28.097 17.9996 27.976 17.8074 27.8778 17.7117C27.8047 17.6405 27.756 17.6291 27.6811 17.6395C27.567 17.6554 27.3735 17.7332 27.0721 17.9569C26.7783 18.175 26.4239 18.4999 25.9913 18.9462M28.6976 18.1723C28.13 16.6794 27.3927 16.7818 25.6322 18.5983M25.9913 18.9462L25.9913 18.9462L25.6322 18.5983M25.9913 18.9462L24.8452 20.1288M25.9913 18.9462L25.6322 18.5983M25.6322 18.5983L24.8452 20.1288M24.8452 20.1288L24.508 20.4767L24.1489 20.1288L24.508 19.7808L24.8452 20.1288ZM16.1852 19.8757L14.9479 21.1429C14.5284 21.5726 14.179 21.8797 13.8896 22.0789C13.5923 22.2835 13.4061 22.3407 13.3048 22.3453C13.2436 22.3481 13.1916 22.3368 13.1144 22.2416C13.0176 22.1222 12.9088 21.8954 12.811 21.5062L16.1852 19.8757ZM16.1852 19.8757L15.2331 18.9637L15.2331 18.9637C14.8258 18.5734 14.4984 18.2149 14.2638 17.8832C14.033 17.557 13.863 17.2168 13.8281 16.8676C13.7902 16.4884 13.9171 16.1527 14.1727 15.8834C14.4096 15.6339 14.744 15.4537 15.1188 15.3112C15.6924 15.0932 15.9442 14.852 16.0469 14.6172C16.1513 14.3784 16.1596 14.0141 15.9373 13.4158C15.8308 13.1297 15.7111 12.9926 15.5747 12.9113C15.4241 12.8214 15.1835 12.7576 14.7569 12.7576C14.2642 12.7576 14.0622 12.8236 13.9384 12.917C13.8059 13.0168 13.6684 13.2181 13.4886 13.7339L13.4886 13.734C13.354 14.1203 13.1886 14.4808 13.0242 14.7539C12.9432 14.8885 12.8526 15.0183 12.7553 15.1212C12.7068 15.1726 12.645 15.2297 12.5704 15.2769C12.5001 15.3215 12.3806 15.3813 12.2267 15.3813C12.0825 15.3813 11.961 15.3246 11.9116 15.3009C11.8421 15.2675 11.7705 15.2248 11.7017 15.18C11.5628 15.0896 11.3975 14.966 11.2195 14.8226C10.8613 14.5342 10.4214 14.1418 9.98263 13.7133L8.77447 12.5336L4.98885 16.3352L1.20634 20.1337L4.88186 23.8096L8.56248 27.4903L9.75001 26.3391L9.75004 26.3391C10.2036 25.8995 10.5315 25.5521 10.7513 25.2689C10.9783 24.9766 11.048 24.8048 11.0612 24.7142C11.0674 24.6713 11.0692 24.6351 10.9896 24.5545C10.8853 24.4486 10.6836 24.3188 10.3262 24.1559C9.58534 23.8184 9.01467 23.3413 8.75809 22.7491C8.48556 22.12 8.60866 21.4557 9.07273 20.8969C9.62768 20.2282 10.443 19.964 11.1765 20.0691C11.9142 20.1749 12.5999 20.6649 12.8109 21.506L16.1852 19.8757ZM32.0302 28.0939L32.3783 28.453L32.7326 28.1001L32.3845 27.7411L32.0302 28.0939ZM30.8871 26.9146L31.2462 26.5666C31.2462 26.5666 31.2461 26.5666 31.2461 26.5666L30.8871 26.9146ZM25.5465 21.5709L25.9056 21.223C25.9056 21.223 25.9056 21.223 25.9056 21.223L25.5465 21.5709ZM32.3813 11.8076L32.032 12.1654L32.3813 11.8076Z" stroke="white"></path></svg>