<svg xmlns="http://www.w3.org/2000/svg" width="41" height="40" viewBox="0 0 41 40" fill="none"><path fill-rule="evenodd" clip-rule="evenodd" d="M20.0851 0.195275C19.6947 0.556747 19.6827 3.59739 20.0687 4.5267C20.6036 5.81659 21.2229 4.76159 21.2229 2.56022C21.2229 0.501924 20.7704 -0.438527 20.0851 0.195275ZM6.28313 5.58972C6.28313 6.21417 9.94482 9.27665 10.299 8.94861C10.4865 8.77522 9.83253 7.86865 8.84554 6.93399C7.10723 5.28753 6.28313 4.85519 6.28313 5.58972ZM32.4017 6.70445C30.1492 8.85367 30.5029 9.75044 32.7892 7.68591C33.8494 6.72852 34.7169 5.78495 34.7169 5.58972C34.7169 4.87748 33.9082 5.26703 32.4017 6.70445ZM17.1265 6.51547C13.3014 7.44879 10.1549 9.9519 8.38337 13.4708C6.1053 17.9943 7.41711 22.8664 12.0243 26.995C14.448 29.1665 14.448 29.167 14.154 31.4633C13.9289 33.2207 14.0113 33.76 14.5053 33.76C15.007 33.76 15.0219 33.879 14.5723 34.2949C13.7048 35.0972 13.8253 37.7714 14.7289 37.7714C15.1328 37.7714 15.6696 38.2729 15.9217 38.8857C16.3612 39.9545 16.5487 40 20.4986 40C24.4239 40 24.6427 39.9479 25.166 38.8857C25.4677 38.2729 26.0113 37.7714 26.3737 37.7714C26.8976 37.7714 26.9973 36.8903 26.86 33.4801L26.687 29.1888L29.1887 26.8185C32.1892 23.9762 33.3708 21.8413 33.6547 18.7485C34.2431 12.3382 28.8687 6.80652 21.6108 6.35278C19.9395 6.24804 17.9217 6.32158 17.1265 6.51547ZM26.6624 8.69009C29.312 10.0237 31.127 11.9563 32.1014 14.4821C33.6725 18.5532 32.5019 22.2709 28.4186 26.1785C26.8465 27.6828 25.5602 29.302 25.5602 29.7772C25.5602 30.5732 25.1863 30.6401 20.7472 30.6401H15.9347L15.2504 29.1915C14.8735 28.395 13.4667 26.7811 12.1236 25.6057C9.69711 23.4828 8.21084 20.5451 8.21084 17.8718C8.21084 14.6301 11.3299 10.1208 14.7169 8.4659C18.3414 6.69509 22.8677 6.77977 26.6624 8.69009ZM15.4398 9.2089C15.4398 9.43354 15.7111 9.72816 16.0422 9.86365C16.472 10.0397 16.3882 10.2733 15.7492 10.6811C13.2123 12.2972 12.5482 12.9663 12.5482 13.9036C12.5482 14.4687 12.2706 15.144 11.9308 15.4047C11.5651 15.686 11.2759 17.0686 11.22 18.8051C11.1405 21.2926 11.2692 21.8145 12.0783 22.2821C12.6017 22.5843 13.0301 23.1704 13.0301 23.584C13.0301 25.0112 14.3381 25.6722 17.0031 25.591C19.0937 25.5277 19.6161 25.3459 19.994 24.5494L20.4523 23.5849L20.9718 24.5494C21.3916 25.3285 21.953 25.5269 23.8875 25.5799C26.6586 25.6557 27.9699 25.1507 27.9699 24.0079C27.9699 23.5639 28.4065 22.8356 28.9405 22.3886C29.7689 21.6955 29.887 21.1339 29.7463 18.5581C29.6561 16.8979 29.3573 15.2768 29.0831 14.9555C28.8089 14.6346 28.4533 13.8603 28.2923 13.235C28.1067 12.5143 27.3776 11.8239 26.2981 11.3479C25.3622 10.9351 24.5964 10.407 24.5964 10.1748C24.5964 9.47499 22.7733 9.16255 21.7231 9.68269C21.1829 9.95012 20.727 10.5126 20.7106 10.9329C20.687 11.5204 20.5829 11.4745 20.2595 10.7337C19.8152 9.71389 18.1877 8.99986 17.3718 9.46608C17.1043 9.61896 16.8855 9.5316 16.8855 9.27219C16.8855 9.01279 16.5602 8.80018 16.1627 8.80018C15.7651 8.80018 15.4398 8.98426 15.4398 9.2089ZM13.1448 10.3807C11.7212 11.3029 9.80602 14.4251 9.39783 16.4887C8.98482 18.5773 9.91639 18.7841 10.4002 16.7116C10.9188 14.4892 12.4301 12.0124 13.7593 11.207C14.9149 10.5068 15.3578 9.69161 14.5834 9.69161C14.3771 9.69161 13.7299 10.0018 13.1448 10.3807ZM19.1998 12.7354C19.3381 14.9189 19.888 15.706 20.4219 14.483C20.5554 14.1768 20.6648 14.9287 20.6648 16.1544C20.6648 17.3801 20.5525 18.124 20.4152 17.8071C20.2287 17.377 20.0012 17.3574 19.5164 17.7296C19.0181 18.112 18.7222 18.013 18.2422 17.3026C17.4735 16.1642 16.8855 16.1107 16.8855 17.1796C16.8855 17.6208 16.6441 18.2051 16.3492 18.4779C16.0542 18.7507 15.9757 19.2178 16.1752 19.5155C16.4427 19.9167 16.6513 19.8685 16.9761 19.3315C17.2176 18.9325 17.8484 18.6058 18.3771 18.6058C19.2576 18.6058 19.327 18.8608 19.1969 21.6099C19.0778 24.1166 18.9067 24.6399 18.1641 24.7709C17.4557 24.8957 17.3395 24.7379 17.5945 23.9954C17.9627 22.9221 17.1361 22.7077 16.6981 23.7627C16.527 24.175 15.9771 24.4041 15.3593 24.3199C13.9771 24.1318 13.6017 23.063 14.9178 23.063C15.4701 23.063 15.9217 22.8624 15.9217 22.6172C15.9217 22.3721 16.247 22.1715 16.6446 22.1715C17.0422 22.1715 17.3675 21.8769 17.3675 21.5168C17.3675 21.1393 17.0822 20.9637 16.6933 21.1018C16.3227 21.2333 15.8759 21.1268 15.701 20.8647C15.1467 20.0352 14.3978 20.3512 14.7169 21.2801C15.0586 22.2754 14.4489 22.4278 12.9983 21.7102C11.7034 21.0693 11.7925 19.216 13.1506 18.5546C14.5231 17.8865 14.941 17.3026 14.9506 16.043C14.9549 15.4457 14.6653 15.0401 14.2349 15.0401C13.301 15.0401 13.299 13.5301 14.232 12.8138C14.6282 12.5098 15.5043 12.3587 16.1795 12.4778C17.1164 12.6436 17.3766 12.5241 17.2788 11.9732C17.208 11.5765 17.3275 10.9904 17.5443 10.6708C18.313 9.5365 19.0561 10.4631 19.1998 12.7354ZM23.4716 10.6945C23.6793 11.0011 23.792 11.5765 23.7212 11.9732C23.6234 12.5241 23.8836 12.6436 24.8205 12.4778C26.4137 12.1961 27.488 13.0514 27.488 14.6011C27.488 15.2817 27.8089 15.9503 28.2027 16.0898C29.286 16.4744 28.5646 17.6583 27.4161 17.3806C26.8108 17.2339 26.6465 17.0285 26.9814 16.8368C27.5742 16.4985 27.1607 15.0401 26.4725 15.0401C25.9559 15.0401 25.9116 16.8444 26.4108 17.5361C26.6055 17.8058 27.2533 18.2644 27.8494 18.5546C29.7323 19.4719 29.0065 22.1715 26.8774 22.1715C26.1964 22.1715 26.0518 21.9545 26.2831 21.2801C26.6022 20.3512 25.8533 20.0352 25.299 20.8647C25.1241 21.1268 24.6774 21.2333 24.3067 21.1018C23.9357 20.9699 23.6325 21.1197 23.6325 21.4339C23.6325 21.7481 24.3916 22.2807 25.3193 22.6172C26.247 22.9538 27.006 23.4926 27.006 23.8149C27.006 24.6256 24.7631 24.5534 24.4219 23.7315C23.9858 22.6801 23.0388 22.9261 23.4055 23.9954C23.6605 24.7379 23.5443 24.8957 22.8359 24.7709C22.0933 24.6399 21.9222 24.1166 21.8031 21.6099C21.6629 18.654 21.6802 18.6058 22.8875 18.6058C23.7212 18.6058 24.1145 18.8488 24.1145 19.3636C24.1145 19.8645 24.2764 19.9715 24.5925 19.6791C24.9082 19.3872 24.8725 18.7525 24.487 17.8071C23.8875 16.3394 23.1506 15.8932 23.1506 16.9982C23.1506 17.3396 22.8253 17.7345 22.4277 17.8758C21.821 18.091 21.7048 17.5379 21.7048 14.4318C21.7048 12.3966 21.8494 10.5977 22.0263 10.4346C22.5164 9.98132 23.0533 10.078 23.4716 10.6945ZM15.806 13.1156C15.6884 13.3161 15.9742 13.8149 16.4407 14.224C17.234 14.9194 17.3434 14.9122 18.126 14.1126C18.8566 13.3656 18.8667 13.2573 18.2046 13.2573C17.7877 13.2573 17.1251 13.1432 16.7328 13.0041C16.3405 12.8646 15.9231 12.915 15.806 13.1156ZM23.512 13.1187C22.5236 13.3576 22.4455 13.7641 23.247 14.5053C24.034 15.2331 24.5964 15.1774 24.5964 14.3716C24.5964 14.0039 24.8133 13.703 25.0783 13.703C25.3434 13.703 25.5602 13.5024 25.5602 13.2573C25.5602 12.7996 24.9916 12.7612 23.512 13.1187ZM13.7198 15.9815C13.5376 16.2538 13.6513 16.6273 13.9728 16.811C14.3728 17.0392 14.2398 17.2219 13.553 17.3882C12.806 17.5687 12.5482 17.4225 12.5482 16.8185C12.5482 16.1424 12.9655 15.7421 13.9019 15.5211C13.9839 15.5019 13.9019 15.7087 13.7198 15.9815ZM0.5 18.6058C0.5 18.851 1.69277 19.0516 3.1506 19.0516C4.60843 19.0516 5.80121 18.851 5.80121 18.6058C5.80121 18.3607 4.60843 18.1601 3.1506 18.1601C1.69277 18.1601 0.5 18.3607 0.5 18.6058ZM35.1988 18.6058C35.1988 18.851 36.3916 19.0516 37.8494 19.0516C39.3072 19.0516 40.5 18.851 40.5 18.6058C40.5 18.3607 39.3072 18.1601 37.8494 18.1601C36.3916 18.1601 35.1988 18.3607 35.1988 18.6058ZM7.7694 29.487C6.89229 30.324 6.25566 31.2329 6.35446 31.507C6.45325 31.7811 7.49904 31.0965 8.67783 29.9858C9.97856 28.76 10.5347 27.9658 10.0923 27.9658C9.69181 27.9658 8.64651 28.6504 7.7694 29.487ZM30.8614 28.321C30.8614 28.9455 34.5231 32.0079 34.8773 31.6799C35.0648 31.5065 34.4108 30.5999 33.4239 29.6653C31.6855 28.0188 30.8614 27.5865 30.8614 28.321ZM26.0422 32.2C26.0422 32.7313 25.3429 32.8686 22.6402 32.8686C20.4952 32.8686 19.3482 33.0331 19.5361 33.3143C19.7 33.5595 21.0137 33.76 22.4561 33.76C23.8986 33.76 25.0783 33.9606 25.0783 34.2057C25.0783 34.4714 23.2311 34.6515 20.5 34.6515C15.9858 34.6515 15.3612 34.4567 16.5 33.4035C16.9496 32.9876 16.8427 32.8686 16.0181 32.8686C15.3969 32.8686 14.9578 32.5918 14.9578 32.2C14.9578 31.6447 15.8947 31.5315 20.5 31.5315C25.1053 31.5315 26.0422 31.6447 26.0422 32.2ZM26.0422 36.2115C26.0422 36.7668 25.1053 36.88 20.5 36.88C15.8947 36.88 14.9578 36.7668 14.9578 36.2115C14.9578 35.6561 15.8947 35.5429 20.5 35.5429C25.1053 35.5429 26.0422 35.6561 26.0422 36.2115ZM24.3554 38.2172C24.1916 38.4623 22.4566 38.6629 20.5 38.6629C18.5434 38.6629 16.8084 38.4623 16.6446 38.2172C16.4547 37.9332 17.8537 37.7714 20.5 37.7714C23.1463 37.7714 24.5453 37.9332 24.3554 38.2172Z" fill="white"></path></svg>