<svg xmlns="http://www.w3.org/2000/svg" xmlns:xlink="http://www.w3.org/1999/xlink" id="Layer_1" x="0px" y="0px" viewBox="0 0 8000 8000" style="enable-background:new 0 0 8000 8000;" xml:space="preserve"><style type="text/css">	.st0{fill:#CE9B6B;}	.st1{fill:#AF6E5A;}	.st2{fill:#679584;}	.st3{fill:#127377;}	.st4{opacity:0.71;fill:#231F20;}	.st5{fill:#A3614F;}</style><g>	<g>		<path class="st0" d="M2952.79,3165.46c-173.57-191.24-660.99,141.04-1033.72-38.91c-78.45,362.16,45.35,1279.72,1010.94,841.68   C2930.01,3968.23,2848.25,3519.86,2952.79,3165.46z"></path>		<path class="st1" d="M3169.78,3263.44c-100.2-231.66-655.9-78.11-943.88-362.19c-186.85,310.23-361.87,1198.01,669.5,1097.53   C2895.4,3998.79,2961.25,3558.26,3169.78,3263.44z"></path>		<path class="st2" d="M2895.4,4009.76c3.76-21.68-345.91-73.4-368.08-75.63c-240.52-24.1-497-0.81-707.48,127.12   c-322.16,195.82-311.39,674.48-274.4,1002.14c0,0,625.59-428.04,1328.02-439.01C2873.45,4624.38,2851.5,4262.2,2895.4,4009.76z"></path>		<path class="st0" d="M3148.98,4808.1c-10.41-227.01-3.79-456.83,18.2-682.89c12.57-129.19,32.5-258.27,69.96-382.78   c19-63.16,42.48-125,71.25-184.38c28.39-58.59,69.25-111.06,92.35-172.16c19.73-52.17,29.32-122.45-33.4-166.35   c0,0-34.02-41.27-110.21-27.24c-62.22,11.46-115.16,51.85-147.11,106.46c-88.58,151.42-297.59,595.63-236.57,1336.6   C2873.45,4635.36,2941.6,5090.6,3148.98,4808.1z"></path>		<path class="st3" d="M2873.45,4624.38c0,0,258.47,5.32,274.38,164.63c9.33,93.42-38.53,175.03-131.7,186.58   c-220.72,27.35-816.48,139.92-1152.41,417.06c0,0,65.85-428.04-318.28-329.26C1545.43,5063.4,2258.83,4602.43,2873.45,4624.38z"></path>		<path class="st4" d="M3324.71,2612.45c-85.77-27.65-173.24,62-149.17,148.83c17.24,62.21,90.87,102.24,152.46,82.9   s99.1-94.29,77.68-155.18c101.26,34.57,166.35,140.44,176.88,246.92c10.53,106.48-25.04,212.62-73.91,307.81   c-158.77,309.2-451.71,526.46-752.22,701.12c-300.51,174.66-621.19,320.11-889.92,540.55   c-228.56,187.49-414.95,427.84-530.72,699.86c-3.91,9.18-7.8,19.25-5.19,28.87c5.17,19.08,33.3,22.53,49.16,10.73   s22.41-32.04,28.51-50.83c155.98-480.58,589.4-829.25,1059.65-1014.03c-214.38,173.44-438.58,360.42-529.92,620.6   c-24.59,70.03-38.6,146.67-19.79,218.47c19.87,75.82,77.51,140.73,150.45,169.42c72.94,28.68,159.36,20.43,225.55-21.55   c-101.19,8.91-216.34,8.51-287.3-64.18c-49.3-50.51-65-127.06-54.61-196.88c10.39-69.81,43.85-134.09,81.92-193.53   c329.12-513.86,988.39-718.97,1379.06-1187.74c96.26-115.51,175.96-248.91,205.22-396.4   C3659.38,2902.2,3584.29,2602.65,3324.71,2612.45"></path>	</g>	<g>		<g>			<path class="st3" d="M3596.12,4009.05c15.33,0,31.72,9.51,42.3,32.25c9.51,21.15,35.95,94.11,98.34,94.11    c31.19,0,56.04-14.8,56.04-45.47c0-83.01-225.23-127.43-225.23-234.22c0-46.53,50.23-88.3,131.65-88.3    c71.38,0,139.06,37.01,151.21,84.06c9.52,35.42-13.22,54.46-35.95,54.46c-16.4,0-32.78-9.51-38.07-29.61    c-12.69-45.47-42.82-87.24-94.64-87.24c-20.09,0-34.89,15.86-34.89,33.31c0,103.63,225.24,129.54,225.24,234.75    c0,63.45-76.14,99.41-144.34,99.41c-95.7,0-161.26-62.92-168.67-99.41C3553.29,4029.14,3573.38,4009.05,3596.12,4009.05z"></path>			<path class="st3" d="M4006.37,3962c36.48,0,59.75,12.69,73.49,28.55c-0.52-72.43-14.27-108.39-54.98-108.39    c-28.55,0-35.42,30.14-43.88,46.52c-10.05,19.57-25.38,28.03-39.13,28.03c-19.04,0-34.89-15.33-29.61-36.49    c11.11-44.94,75.61-53.93,111.04-53.93c61.86,0,137.47,30.14,134.82,134.3c-2.12,70.85,6.87,114.2,21.15,135.35    c6.34,8.99,4.76,10.05-0.53,10.05h-92.52c-4.76,0-7.4-2.64-7.4-7.41c0-5.81,0-15.86,0-26.96    c-13.22,21.15-36.48,34.37-73.49,34.37c-70.86,0-112.09-43.88-112.09-88.83v-4.23C3893.22,3986.84,3963.54,3962,4006.37,3962z     M4026.99,4128.02c50.23,0,52.34-63.98,52.34-99.93c-1.59-15.33-15.33-49.17-52.87-49.17c-24.85,0-53.93,21.68-53.93,71.9    C3972.53,4086.77,3990.5,4128.02,4026.99,4128.02z"></path>			<path class="st3" d="M4206.19,4135.94c19.56-31.72,21.15-85.65,21.15-100.46v-33.84c0-14.8-1.59-68.73-21.15-100.45    c-4.23-6.35-7.4-8.46,0-10.05l96.23-23.79c2.64-0.53,4.23,0.52,4.23,3.17v14.8c17.45-11.63,39.13-19.04,63.97-19.04    c84.6,0,149.1,60.28,149.1,143.29c0,2.64-1.59,93.06,19.57,123.72c6.87,10.57,7.93,12.69,1.05,12.69h-121.07    c-8.99,0-2.12-6.87,0-10.05c19.56-31.72,20.62-90.94,20.62-99.4c0-86.71-22.74-153.86-80.9-153.86    c-40.71,0-50.76,38.06-52.34,88.29v64.51c0,14.81,1.59,68.74,21.15,100.46c3.7,6.34,7.4,10.05-0.53,10.05h-121.07    C4198.79,4145.99,4201.96,4142.29,4206.19,4135.94z"></path>			<path class="st3" d="M4548.23,3881.63h0.53c45.47,0,76.67-41.24,96.23-75.07c2.12-3.7,4.76-5.29,6.87-5.29    c2.65,0,4.23,2.11,4.23,5.81v74.55h44.41c2.65,0,4.23,1.59,4.23,4.23v7.4c0,2.65-1.59,4.23-4.23,4.23h-44.41v118.97    c0,50.23,1.05,88.82,30.67,88.82c10.05,0,18.5-5.81,22.2-10.05c5.82-5.82,8.46-1.05,5.82,5.82    c-6.87,17.44-31.2,44.94-67.68,44.94c-56.58,0-70.32-49.17-70.32-106.8v-141.7h-28.55c-2.64,0-4.23-1.59-4.23-4.23v-7.4    C4544,3883.21,4545.59,3881.63,4548.23,3881.63z"></path>			<path class="st3" d="M4738.55,4135.94c19.56-31.72,21.15-85.65,21.15-100.46v-149.1c0-14.8-1.59-68.73-21.15-100.45    c-4.23-6.34-7.4-8.46,0-10.05l96.23-23.79c2.64-0.53,4.23,0.52,4.23,3.17v130.07c17.45-11.63,39.13-19.04,63.97-19.04    c84.6,0,149.1,60.28,149.1,143.29c0,2.64-1.59,93.06,19.57,123.72c6.87,10.57,7.93,12.69,1.05,12.69h-121.07    c-8.99,0-2.12-6.87,0-10.05c19.56-31.72,20.62-90.94,20.62-99.4c0-86.71-22.74-153.86-80.9-153.86    c-40.71,0-50.76,38.06-52.34,88.29v64.51c0,14.81,1.59,68.74,21.15,100.46c3.7,6.34,7.4,10.05-0.53,10.05h-121.07    C4731.14,4145.99,4734.31,4142.29,4738.55,4135.94z"></path>			<path class="st3" d="M5100.15,4135.94c19.56-31.72,21.15-85.65,21.15-100.46v-33.84c0-14.8-1.59-68.73-21.15-100.45    c-4.23-6.35-7.4-8.46,0-10.05l96.75-23.79c2.12-0.53,3.7,0.52,3.7,3.17v164.96c0,14.81,1.59,68.74,21.15,100.46    c3.7,6.34,7.4,10.05-0.53,10.05h-121.08C5092.75,4145.99,5095.92,4142.29,5100.15,4135.94z M5105.44,3809.72    c0-26.44,22.2-48.64,49.17-48.64c26.43,0,48.64,22.2,48.64,48.64c0,27.49-22.21,49.17-48.64,49.17    C5127.64,3858.89,5105.44,3837.21,5105.44,3809.72z"></path>			<path class="st3" d="M5258.23,4170.84c15.33,0,31.19,8.99,37.53,29.61c9.52,30.14,20.62,73.49,76.67,73.49    c76.67,0,90.94-112.62,23.79-112.62c-23.26,0-48.64,13.75-85.13,13.75c-30.14,0-61.86-13.22-61.86-35.96    c0-16.39,19.04-24.85,39.65-27.5c-35.42-23.26-58.15-62.91-58.15-111.03c0-78.78,59.75-134.3,138.52-134.3    c7.93,0,15.33,0.53,23.26,1.59c17.98-29.6,57.63-52.87,95.7-52.34c52.34,1.06,50.23,66.09,2.11,65.04    c-19.03,0-35.95-12.69-58.69-12.16c-5.81,0.53-12.69,1.59-18.5,4.23c56.05,16.39,94.64,65.03,94.64,127.95    c0,77.19-58.16,132.71-135.88,133.77c-43.88,0-51.81-10.04-68.2-10.04c-15.33,0-28.03,5.29-28.03,16.92    c0,9.51,15.33,19.04,41.77,17.97c28.55-1.05,65.56-19.56,109.98-19.56c57.63,0,89.88,27.5,89.88,58.15c0,61.87-88.3,92-139.59,92    c-60.8,0-143.28-19.04-156.51-66.09C5212.23,4191.46,5234.96,4170.84,5258.23,4170.84z M5436.93,4029.67    c0-53.41-24.32-148.05-79.31-148.05c-49.7,0-55.52,46.53-55.52,89.88c0,49.7,21.68,142.23,74.02,147.52    C5430.59,4119.02,5436.93,4073.56,5436.93,4029.67z"></path>			<path class="st3" d="M5537.36,4135.94c19.56-31.72,21.15-85.65,21.15-100.46v-33.84c0-14.8-1.59-68.73-21.15-100.45    c-4.23-6.35-7.41-8.46,0-10.05l96.23-23.79c2.64-0.53,4.23,0.52,4.23,3.17v38.6c15.86-23.79,43.36-42.83,84.6-42.83    c34.9,0,66.62,26.44,74.55,49.17c9.52,26.96-9.51,45.47-30.14,45.47c-11.1,0-22.21-4.76-30.67-15.86    c-13.75-17.45-26.43-47.06-52.87-47.06c-23.26,0-45.47,24.85-45.47,60.8v76.66c0,14.81,1.59,68.74,21.15,100.46    c3.7,6.34,7.4,10.05-0.53,10.05h-121.07C5529.95,4145.99,5533.12,4142.29,5537.36,4135.94z"></path>			<path class="st3" d="M5920.13,3962c36.48,0,59.75,12.69,73.49,28.55c-0.52-72.43-14.27-108.39-54.98-108.39    c-28.55,0-35.42,30.14-43.88,46.52c-10.05,19.57-25.38,28.03-39.13,28.03c-19.04,0-34.89-15.33-29.61-36.49    c11.11-44.94,75.61-53.93,111.04-53.93c61.86,0,137.47,30.14,134.82,134.3c-2.12,70.85,6.87,114.2,21.15,135.35    c6.34,8.99,4.76,10.05-0.53,10.05h-92.52c-4.76,0-7.4-2.64-7.4-7.41c0-5.81,0-15.86,0-26.96    c-13.22,21.15-36.48,34.37-73.49,34.37c-70.86,0-112.09-43.88-112.09-88.83v-4.23C5806.98,3986.84,5877.3,3962,5920.13,3962z     M5940.75,4128.02c50.23,0,52.34-63.98,52.34-99.93c-1.59-15.33-15.33-49.17-52.87-49.17c-24.85,0-53.93,21.68-53.93,71.9    C5886.29,4086.77,5904.26,4128.02,5940.75,4128.02z"></path>			<path class="st3" d="M6119.95,4135.94c19.56-31.72,21.15-85.65,21.15-100.46v-33.84c0-14.8-1.59-68.73-21.15-100.45    c-4.23-6.35-7.41-8.46,0-10.05l96.23-23.79c2.64-0.53,4.23,0.52,4.23,3.17v14.8c17.45-11.63,39.13-19.04,63.97-19.04    c47.59,0,88.83,19.04,115.79,50.23c20.09-28.03,52.34-50.23,95.7-50.23c84.6,0,149.09,60.28,149.09,143.29    c0,2.64-1.59,93.06,19.57,123.72c6.87,10.57,7.93,12.69,1.05,12.69h-121.07c-8.99,0-2.12-6.87,0-10.05    c19.56-31.72,20.62-90.94,20.62-99.4c0-86.71-22.74-153.86-80.9-153.86c-44.94,0-52.87,46.52-52.34,104.16    c1.06,7.4,1.59,14.8,1.59,22.74c0,2.64-1.59,93.06,19.57,123.72c6.87,10.57,7.93,12.69,1.05,12.69h-121.07    c-8.99,0-2.12-6.87,0-10.05c19.56-31.72,20.62-90.94,20.62-99.4c0-86.71-22.74-153.86-80.9-153.86    c-40.71,0-50.76,38.06-52.34,88.29v64.51c0,14.81,1.59,68.74,21.15,100.46c3.7,6.34,7.4,10.05-0.53,10.05h-121.07    C6112.54,4145.99,6115.71,4142.29,6119.95,4135.94z"></path>		</g>		<g>			<path class="st5" d="M3672.19,4377.93c11.95,6.16,21.18,14.92,27.69,26.31c6.51,11.38,9.77,24.58,9.77,39.61    c0,15.03-3.26,28.17-9.77,39.41c-6.51,11.24-15.75,19.94-27.69,26.09c-11.96,6.16-25.81,9.23-41.55,9.23h-52.39v-149.88h52.39    C3646.38,4368.69,3660.23,4371.77,3672.19,4377.93z M3666.06,4480.14c8.58-8.59,12.88-20.69,12.88-36.29    c0-15.6-4.3-27.81-12.88-36.61c-8.59-8.81-20.76-13.2-36.51-13.2h-21.26v98.99h21.26    C3645.3,4493.02,3657.47,4488.73,3666.06,4480.14z"></path>			<path class="st5" d="M3805.21,4368.69v149.88h-30.06v-149.88H3805.21z"></path>			<path class="st5" d="M3982.15,4413.78c-3.44-6.3-8.16-11.09-14.18-14.39c-6.01-3.29-13.02-4.93-21.04-4.93    c-8.88,0-16.75,2.01-23.62,6.01c-6.87,4.01-12.24,9.74-16.1,17.18c-3.86,7.45-5.8,16.03-5.8,25.77c0,10.02,1.97,18.76,5.91,26.2    c3.94,7.44,9.41,13.17,16.43,17.18c7.01,4.01,15.18,6.01,24.48,6.01c11.45,0,20.84-3.04,28.13-9.12    c7.3-6.08,12.1-14.57,14.39-25.45h-51.53v-22.97h81.17v26.2c-2.01,10.45-6.3,20.11-12.88,28.99c-6.59,8.88-15.07,16-25.45,21.37    c-10.38,5.37-22.01,8.05-34.89,8.05c-14.46,0-27.52-3.26-39.19-9.77s-20.83-15.57-27.48-27.16c-6.66-11.59-9.99-24.77-9.99-39.51    c0-14.74,3.33-27.95,9.99-39.62c6.65-11.66,15.81-20.75,27.48-27.27c11.67-6.51,24.66-9.77,38.98-9.77    c16.89,0,31.57,4.12,44.02,12.35c12.46,8.23,21.04,19.8,25.77,34.68H3982.15z"></path>			<path class="st5" d="M4115.71,4368.69v149.88h-30.06v-149.88H4115.71z"></path>			<path class="st5" d="M4290.28,4368.69v24.27h-39.94v125.62h-30.06v-125.62h-39.94v-24.27H4290.28z"></path>			<path class="st5" d="M4447.04,4490.02h-59.7l-9.88,28.56h-31.57l53.9-150.1h35l53.9,150.1h-31.78L4447.04,4490.02z     M4438.88,4465.97l-21.69-62.7l-21.69,62.7H4438.88z"></path>			<path class="st5" d="M4581.88,4494.74h49.39v23.84h-79.45v-149.88h30.06V4494.74z"></path>			<path class="st5" d="M4817.45,4494.74h49.39v23.84h-79.45v-149.88h30.06V4494.74z"></path>			<path class="st5" d="M4958.95,4368.69v149.88h-30.06v-149.88H4958.95z"></path>			<path class="st5" d="M5137.39,4454.37c5.44,6.87,8.16,14.74,8.16,23.62c0,8.02-1.97,15.07-5.91,21.15    c-3.94,6.08-9.63,10.84-17.07,14.28s-16.25,5.16-26.41,5.16h-64.63v-149.88h61.84c10.16,0,18.93,1.64,26.3,4.94    c7.38,3.29,12.96,7.87,16.75,13.74c3.79,5.87,5.69,12.53,5.69,19.97c0,8.73-2.33,16.03-6.98,21.9    c-4.65,5.87-10.85,10.02-18.58,12.46C5125.01,4443.28,5131.95,4447.5,5137.39,4454.37z M5061.6,4430.53h27.49    c7.15,0,12.66-1.61,16.53-4.83c3.86-3.22,5.8-7.84,5.8-13.85c0-6.01-1.94-10.66-5.8-13.95c-3.86-3.3-9.37-4.94-16.53-4.94h-27.49    V4430.53z M5108.95,4488.94c4.08-3.44,6.11-8.3,6.11-14.6c0-6.44-2.15-11.48-6.44-15.13c-4.29-3.65-10.09-5.48-17.39-5.48h-29.63    v40.37h30.28C5099.17,4494.1,5104.87,4492.38,5108.95,4488.94z"></path>			<path class="st5" d="M5289.85,4518.57l-33.07-58.41h-14.17v58.41h-30.06v-149.88h56.26c11.59,0,21.47,2.04,29.63,6.12    c8.16,4.08,14.28,9.59,18.36,16.54c4.08,6.94,6.12,14.71,6.12,23.3c0,9.88-2.87,18.79-8.59,26.73    c-5.72,7.95-14.24,13.42-25.55,16.43l35.86,60.77H5289.85z M5242.61,4437.62h25.12c8.16,0,14.24-1.97,18.25-5.91    c4-3.93,6.01-9.41,6.01-16.43c0-6.87-2.01-12.21-6.01-16c-4.01-3.79-10.09-5.69-18.25-5.69h-25.12V4437.62z"></path>			<path class="st5" d="M5485.04,4490.02h-59.7l-9.88,28.56h-31.57l53.9-150.1h35l53.9,150.1h-31.78L5485.04,4490.02z     M5476.88,4465.97l-21.69-62.7l-21.69,62.7H5476.88z"></path>			<path class="st5" d="M5667.13,4518.57l-33.07-58.41h-14.17v58.41h-30.06v-149.88h56.26c11.59,0,21.47,2.04,29.63,6.12    c8.16,4.08,14.28,9.59,18.36,16.54c4.08,6.94,6.12,14.71,6.12,23.3c0,9.88-2.87,18.79-8.59,26.73    c-5.72,7.95-14.24,13.42-25.55,16.43l35.86,60.77H5667.13z M5619.89,4437.62h25.12c8.16,0,14.24-1.97,18.25-5.91    c4-3.93,6.01-9.41,6.01-16.43c0-6.87-2.01-12.21-6.01-16c-4.01-3.79-10.09-5.69-18.25-5.69h-25.12V4437.62z"></path>			<path class="st5" d="M5889.59,4368.69l-50.68,97.7v52.18h-30.06v-52.18l-50.89-97.7h33.93l32.22,68.5l31.99-68.5H5889.59z"></path>		</g>	</g></g></svg>