<svg xmlns="http://www.w3.org/2000/svg" width="41" height="41" viewBox="0 0 41 41" fill="none"><path d="M17.6673 34.9997C21.5131 34.9989 25.2481 33.7114 28.2775 31.3423L37.8022 40.867L40.8658 37.8033L31.3412 28.2787C33.7115 25.2489 34.9997 21.5131 35.0007 17.6663C35.0007 8.10918 27.2245 0.333008 17.6673 0.333008C8.11015 0.333008 0.333984 8.10918 0.333984 17.6663C0.333984 27.2235 8.11015 34.9997 17.6673 34.9997ZM17.6673 4.66634C24.8368 4.66634 30.6673 10.4968 30.6673 17.6663C30.6673 24.8358 24.8368 30.6663 17.6673 30.6663C10.4978 30.6663 4.66732 24.8358 4.66732 17.6663C4.66732 10.4968 10.4978 4.66634 17.6673 4.66634Z" fill="white"></path></svg>